<svg version="1" xmlns="http://www.w3.org/2000/svg" width="1013.333" height="1013.333" viewBox="0 0 760.000000 760.000000"><path d="M364.5.7c-4.6 1-15.3 4.8-18.5 6.6-7 3.8-18 13.4-18 15.5 0 .7-.4 1.2-.9 1.2-2.6 0-10.3 17.5-11.7 26.3-2.3 15.2 2.2 34.3 10.8 45.2 3.5 4.5 19.1 20.5 19.9 20.5.7 0 16.8-15.8 19.8-19.3 1.2-1.5.3-2.7-7.3-10.3-10.1-10.1-11.4-12.3-13.5-22.4-2.3-11.1 5-24.9 16.3-30.7 4.3-2.3 6.4-2.7 13.1-2.7 6.7 0 8.8.4 13.2 2.7 8.8 4.5 14.5 12 16 20.9.7 4.4.7 5.6 0 11.9-.9 7.5-4.5 11.7-44.7 51.9-22 22-40 40.4-40 41 0 .6 4.6 5.6 10.2 11.2l10.1 10 42.2-42.3c38-38.2 42.5-43.1 45.9-49.7 2-4 3.9-8 4.1-9 2.6-11.7 3.2-15.7 2.9-21.2-1-25-17.4-46.9-41.4-55C386.8.8 370-.5 364.5.7zM494.8 127.6c-.2.1-2.3.5-4.7.9-7.8 1.1-18.3 6.1-25.6 12-2.2 1.8-7.5 6.7-11.7 10.9l-7.7 7.6 10.6 10.5 10.7 10.6 6-5.9c10.9-10.6 13.7-12.8 18.9-14.7 15-5.4 30.8 1.1 37.4 15.3 3.9 8.3 3.8 17-.4 26.2-.9 2.1-18.2 20.1-42.3 44.4l-40.8 40.9 10.4 10.3c5.7 5.7 10.6 10.4 10.8 10.4.2 0 18.7-18.3 41-40.6 33.6-33.7 47.6-48.9 48.1-52.4.1-.3.8-2.1 1.6-4 1.4-3.2 2.1-5.4 3.6-11.5.2-1.1.6-5.4.7-9.5 1.1-28.1-18.3-53.5-46.2-60.1-4.1-1-19.8-2-20.4-1.3z"/><path d="M392 141.5L381.5 152l46 45.9 46 46 10.7-10.7 10.7-10.6-45.9-45.8c-25.3-25.2-46.1-45.8-46.2-45.8-.2 0-5 4.7-10.8 10.5zM243 135.5c-5.2 1.2-6.3 1.5-10.7 3.2-1 .3-2.4.7-3.1.9-.8.1-2.2 1-3.1 1.8-1 .9-2.1 1.6-2.5 1.6-1 0-8.3 5.6-11.6 9-3.4 3.3-9 10.6-9 11.6 0 .4-.6 1.5-1.3 2.3-1.9 2.2-5.4 12.5-6.5 18.7-.9 5.2-.8 15.9.2 20.6.3 1.6.8 3.9 1.1 5.3 1 4.7 5.6 13.9 9.4 19 4.9 6.3 11.8 13.5 13 13.5.5 0 5.5-4.6 11-10.2l10.2-10.2-3.8-4c-2.1-2.2-4.5-4.7-5.3-5.6-.8-.8-2.3-3.1-3.2-5-13.8-27.8 18.3-55.6 43.7-37.9 2.2 1.5 19.7 18.5 39 37.8 19.2 19.3 35.3 35.1 35.8 35.1.8 0 20.7-19.7 20.7-20.5 0-1-75-75.1-78.5-77.5-4.3-2.9-12.6-6.9-15.6-7.5-1.1-.2-2.3-.6-2.7-.9-3.3-2-19.8-2.7-27.2-1.1zM363.7 240.4l-45.8 45.9 10.6 10.5c5.8 5.8 10.8 10.3 11 10.1.2-.2 20.9-20.8 46-45.8l45.6-45.3-4.3-4.7c-2.4-2.5-7.2-7.3-10.8-10.6l-6.5-6-45.8 45.9z"/><path d="M236.1 240.6l-45.4 45.5 10.6 10.7 10.7 10.7 45.9-45.9 46-45.9-10.4-10.4c-5.6-5.7-10.7-10.3-11.1-10.2-.5 0-21.3 20.5-46.3 45.5zM624.7 254.6c-.1.1-2 .5-4.2.8-15.4 2.4-24.4 7.5-39.4 22.4l-8.5 8.3 10.6 10.6 10.6 10.6 7.4-7.3c12.6-12.5 17.3-15 28.3-15.1 17.3-.2 31.1 15.5 29.1 32.7-1.3 11-2.2 12.1-42.9 53-21 21-39.3 39.4-40.6 40.8l-2.5 2.6 10.7 10.4 10.6 10.3 40.5-40.6c40.9-40.9 44.1-44.3 47.8-51.6 5-9.7 6.5-16.4 6.2-28-.3-14.4-.6-15.7-5.6-26.4-7.5-15.9-23.2-28.2-40.8-31.9-4.9-1.1-16.7-2.2-17.3-1.6zM392.1 268.6c-5.7 5.7-10.2 10.7-10 10.9.9 1 81.4 81.6 86.2 86.3l5.4 5.3 10.5-10.6 10.5-10.6-46-45.9c-25.3-25.3-46-46-46.1-46-.1 0-4.8 4.8-10.5 10.6z"/><path d="M519.6 268.7L509 279.3l45.7 45.9c25.2 25.2 45.9 45.8 46 45.8.2 0 5.1-4.7 10.8-10.5L622 350l-45.9-46-45.8-46-10.7 10.7zM264.6 268.9c-9 9-9.8 10.1-8.5 11.7.8.9 21.4 21.7 45.8 46.2l44.3 44.5 10.7-10.7 10.6-10.6-45.5-45.5c-25-25-46-45.5-46.5-45.5-.6 0-5.5 4.5-10.9 9.9zM125.7 261.6c-.1.1-2.7.4-5.7.7-23.2 2.5-42.9 18.8-50 41.2-2.5 7.9-3.6 24.3-1.9 29.7.5 1.8 1.4 4.9 2 6.8 2.8 9.1 7.1 16.2 15.4 24.8l6.1 6.4 10.6-10.6 10.5-10.5-5.4-5.7c-6.7-7.2-9.4-13-9.8-21.2-.8-17 12.5-31.3 28.9-31.3 6.2 0 12.9 1.8 16.9 4.5 1.2.9 18.7 18.1 38.9 38.2l36.7 36.7 10.6-10.7 10.6-10.7-36.3-36.3c-20-19.9-38.5-37.9-41.2-40-6-4.6-13.4-8.1-21.1-10-5.2-1.3-15.1-2.6-15.8-2z"/><path d="M113.8 363c-37.5 37.6-44.7 45.6-48.5 54-3.2 7-4.5 13.3-4.9 22.6-.6 18 4.7 31.5 17.6 44.5 7.7 7.7 14.3 11.7 26 15.5 8.3 2.7 24.4 2.4 33.3-.5 6.7-2.3 14.3-5.9 17.3-8.3 4-3.2 19.1-17.5 20.3-19.1 1.1-1.7.1-3-9.1-12.3L155.5 449l-8.8 8.5c-7.5 7.3-18.7 15-18.7 12.9 0-.4-.6-.2-1.2.4-.7.5-4.2.9-7.8.7-16.7-.6-29.2-13.9-28.6-30.5.2-6.3 2.9-14.3 5.8-17.5.7-.7 19-19.2 40.7-40.9 21.7-21.8 39.3-39.8 39-40.1-3.5-3.9-20.4-20.5-20.8-20.5-.3.1-18.9 18.5-41.3 41zM236.6 367.7c-38.9 39-45.4 45.8-44.3 47.2.6.8 5.4 5.6 10.4 10.7l9.3 9.1 45.9-46 45.9-45.9-10.3-10.4c-5.7-5.7-10.6-10.4-10.8-10.4-.3 0-21 20.5-46.1 45.7zM363.8 367.7L318 413.5l9.9 10c5.5 5.5 10.4 10.1 10.9 10.3.6.2 21.6-20.2 46.7-45.3l45.7-45.7-10.3-10.4c-5.7-5.7-10.6-10.4-10.9-10.4-.3 0-21.1 20.6-46.2 45.7zM491.3 367.4c-24.9 24.9-45.3 45.7-45.3 46.2s4.6 5.5 10.2 11.1l10.2 10.1 45.2-45.2c24.9-24.9 45.4-45.7 45.6-46.4.3-1.1-18.8-21.2-20.1-21.2-.3.1-21 20.5-45.8 45.4zM392.2 395.7c-10.2 10.3-10.3 10.5-8.5 12.5 2.3 2.7 85.4 85.7 88.1 88.1 2 1.8 2.2 1.7 12.5-8.6l10.5-10.4-45.9-45.9c-25.3-25.2-46.1-45.9-46.2-46-.1-.1-4.8 4.6-10.5 10.3zM519.6 395.8l-10.7 10.6 45.8 45.7c33.9 33.8 47.3 46.4 51.4 48.8 17.3 9.6 37.9 10.4 55.7 2.1 8.9-4.2 18.6-12.3 23.8-19.9 1.4-2.1 6-11 7-13.6 3.6-9.6 4.3-25.4 1.4-35.8-3.8-13.8-7.2-19-24-35.9l-12.6-12.7-10.6 10.7-10.7 10.7 12.1 12c14.7 14.7 17.2 18.9 17.2 29.5.1 9.1-.2 10.3-3.7 16.2-8 13.7-23.9 18.1-39.7 11-2.1-.9-21-19-47.6-45.7l-44.2-44.3-10.6 10.6z"/><path d="M137.2 395.9c-5.1 5.3-9.3 10-9.4 10.5 0 .7 41.9 43.1 82.1 83l9 9 10.6-10.6 10.6-10.5-45.6-45.7c-25.1-25.1-46.1-45.5-46.8-45.5-.7.1-5.4 4.5-10.5 9.8zM264.8 395.8c-5.4 5.4-9.8 10.1-9.8 10.6 0 .4 20.5 21.3 45.5 46.4l45.6 45.6 10.6-10.6 10.6-10.6-45.4-45.6c-25-25.1-45.8-45.6-46.4-45.6-.5 0-5.4 4.4-10.7 9.8zM241.8 489.8c-22.4 22.4-41.6 41.8-42.6 43.2-4.5 6.2-9.3 16.9-10.8 24.2-.9 4.4-.9 19.4 0 23.9 4.5 23.1 23.1 41.5 47.4 46.9 6.8 1.6 22.3.8 28.7-1.5 6.7-2.3 15.8-6.9 19.1-9.7 5.6-4.7 19.4-18.5 19.4-19.3 0-.5-4.6-5.5-10.2-11.1l-10.1-10.3-8.6 8.5c-9.8 9.8-15.8 13.3-23.9 14-5.8.6-16.2-1.2-16.2-2.8 0-.4-.6-.8-1.3-.8-2 0-10-8.1-11.9-12-4-8.3-4.4-16-1.2-25.1 1.7-5 5.3-8.8 42.6-46.2 22.5-22.4 40.8-41.1 40.8-41.5 0-.4-4.6-5.3-10.3-11L282.5 449l-40.7 40.8zM364 494.8l-46 45.9 10.6 10.7 10.6 10.6 45-44.7c24.7-24.7 45.3-45.5 45.7-46.3.6-1.1-2-4.3-9.6-11.8L410 449l-46 45.8zM490.7 495.4l-45.5 45.4 10.6 10.6 10.6 10.7 46-46 46-46-10.1-10c-5.5-5.6-10.5-10.1-11-10.1-.6 0-21.6 20.4-46.6 45.4z"/><path d="M265.1 522.9c-5.6 5.5-10.1 10.4-10.1 10.9 0 .9 89.3 90.5 90.7 90.9.5.2 5.5-4.3 11.1-10l10.3-10.4-45.6-45.6c-25.1-25.2-45.8-45.7-46-45.7-.2 0-4.9 4.5-10.4 9.9zM392.2 523.1c-5.6 5.5-10.2 10.3-10.2 10.6 0 .3 20.1 20.7 44.8 45.3 46.1 46.1 50 49.4 61.9 53.6 24.6 8.5 51.8.6 67.5-19.7 3.7-4.8 5.9-8.9 9.9-18.4 2.9-7 3.5-21.9 1.3-31-3.6-14.6-7.1-20.2-21.8-35.4-6.7-6.8-12.7-13-13.4-13.7-.7-.8-1.6-1.4-1.9-1.4-.3 0-5.2 4.7-10.9 10.4L509 533.8l12.5 12.6c14.7 15 17.4 19.7 16.9 30.1-.4 9.4-2.4 14.4-8.1 20.3-9.8 10.1-22.9 12-36.2 5.3-2-1.1-23.2-21.5-47.2-45.5-24-24-43.8-43.6-44-43.6-.2 0-5 4.5-10.7 10.1zM368.7 617.4c-22.4 22.6-41.6 42.2-42.6 43.6-3.7 4.9-8.4 15.2-9.6 20.9-.3 1.2-.7 3.1-1 4.3-.7 3-.8 17.7-.2 20.3.3 1.1.8 3.3 1.2 5 2.5 10.2 9.6 21.8 18.1 29.3 24.8 22.2 61.6 20.3 84-4.2 13.7-15 18.5-33.9 14-55.1-2.1-9.9-8.7-20.3-20.8-32.5l-9.1-9.2-10.3 10.3c-5.7 5.7-10.3 10.7-10.2 11.1.2.3 4.1 4.6 8.8 9.5 8.6 8.9 12.1 14.3 12.5 19.3.1 1.5.4 3.1.7 3.6 1.1 2.2-.8 11.7-3.3 16.6-3.9 7.6-12.6 14.1-20.6 15.4-3.7.6-10 .8-11.5.4-.5-.2-1.2-.3-1.7-.4-.5 0-1.3-.4-1.7-.9-.4-.4-1.6-.7-2.6-.7s-1.8-.5-1.8-1c0-.6-.7-1-1.5-1-2.5 0-9.6-7.9-12.2-13.7-3.9-8.4-3.2-19.4 1.5-27.3.8-1.4 19.7-20.7 41.9-43l40.3-40.5-8.9-9c-4.9-5-9.7-9.7-10.7-10.6-1.8-1.5-4.1.7-42.7 39.5z"/></svg>