<?xml version="1.0"?>
<svg xmlns="http://www.w3.org/2000/svg" height="380" width="320">
<path d="m178.5 8.782c-11.7-11.71-30.7-11.71-42.4 0s-11.7 30.72 0 42.43l7 7.07 10.6-10.61-7-7.07c-5.9-5.85-5.9-15.36 0-21.21 5.8-5.86 15.3-5.86 21.2 0 5.8 5.85 5.8 15.36 0 21.21l-38.9 38.89 10.6 10.61 38.9-38.89c11.7-11.71 11.7-30.72 0-42.43zm63.6 63.64c-11.7-11.71-30.7-11.71-42.4 0l-7.1 7.07 10.6 10.61 7.1-7.07c5.9-5.86 15.4-5.86 21.2 0 5.9 5.85 5.9 15.36 0 21.17l-38.9 38.9 10.6 10.6 38.9-38.9c11.7-11.7 11.7-30.67 0-42.38zm63.7 63.68c-11.7-11.7-30.7-11.7-42.5 0l-7 7 10.6 10.6 7-7c5.9-5.9 15.4-5.9 21.3 0 5.8 5.8 5.8 15.3 0 21.2l-38.9 38.9 10.6 10.6 38.9-38.9c11.7-11.7 11.7-30.7 0-42.4zm-134.4-70.75l-10.6 10.61 46 45.94 10.6-10.6-46-45.95zm63.7 63.65l-10.6 10.6 45.9 46 10.6-10.6-45.9-46zm63.6 63.6l-10.6 10.6 10.6 10.6c5.9 5.9 5.9 15.4 0 21.3-5.9 5.8-15.4 5.8-21.2 0l-42.4-42.5-10.6 10.6 42.4 42.5c11.7 11.7 30.7 11.7 42.4 0s11.7-30.8 0-42.5l-10.6-10.6zm-123.7-95.43l-46 45.93 10.6 10.6 46-45.9-10.6-10.63zm63.6 63.63l-46 46 10.6 10.6 46-46-10.6-10.6zm-120.2-84.84c-11.7-11.71-30.73-11.71-42.44 0s-11.71 30.74 0 42.44l3.53 3.5 10.61-10.6-3.54-3.5c-5.85-5.9-5.85-15.38 0-21.24 5.86-5.85 15.34-5.85 21.24 0l35.3 35.34 10.6-10.6-35.3-35.34zm53 53.04l-10.6 10.6 46 46 10.6-10.6-46-46zm-60.1-31.83l-45.95 45.93 10.61 10.6 45.94-45.9-10.6-10.63zm63.7 63.63l-46 46 10.6 10.6 46-46-10.6-10.6zm63.6 63.7l-46 45.9 10.6 10.6 46-45.9-10.6-10.6zm-130.8-95.5l-10.63 10.6 45.93 46 10.6-10.6-45.9-46zm63.6 63.6l-10.6 10.6 46 46 10.6-10.6-46-46zm63.7 63.7l-10.6 10.6 10.6 10.6c5.8 5.8 5.8 15.3 0 21.2-5.9 5.9-15.4 5.9-21.3 0l-42.4-42.4-10.6 10.6 42.4 42.4c11.7 11.7 30.8 11.7 42.5 0s11.7-30.7 0-42.4l-10.6-10.6zm-123.8-95.5l-45.95 46 10.61 10.6 45.94-46-10.6-10.6zm63.7 63.7l-46 45.9 10.6 10.6 46-45.9-10.6-10.6zm-120.3-84.9c-11.71-11.7-30.71-11.7-42.42 0s-11.71 30.7 0 42.4l3.53 3.6 10.61-10.6-3.54-3.6c-5.85-5.8-5.85-15.3 0-21.2 5.86-5.9 15.36-5.9 21.22 0l35.35 35.4 10.61-10.6-35.36-35.4zm53.06 53l-10.63 10.6 45.93 46 10.6-10.6-45.9-46zm-60.13-31.8l-38.89 38.9c-11.71 11.7-11.71 30.7 0.002 42.4s30.72 11.7 42.43 0l7.07-7-10.61-10.6-7.07 7c-5.85 5.9-15.36 5.9-21.21 0-5.86-5.8-5.86-15.3 0-21.2l38.89-38.9-10.61-10.6zm63.63 63.7l-38.88 38.8c-11.71 11.8-11.71 30.8 0 42.5s30.68 11.7 42.38 0l7.1-7.1-10.6-10.6-7.1 7.1c-5.81 5.8-15.32 5.8-21.17 0-5.86-5.9-5.86-15.4 0-21.3l38.87-38.8-10.6-10.6zm63.7 63.6l-38.9 38.9c-11.7 11.7-11.7 30.7 0 42.4s30.7 11.7 42.4 0 11.7-30.7 0-42.4l-7.1-7.1-10.6 10.6 7.1 7.1c5.8 5.8 5.8 15.3 0 21.2-5.9 5.9-15.4 5.9-21.2 0-5.9-5.9-5.9-15.4 0-21.2l38.9-38.9-10.6-10.6zm-130.9-95.5l-10.61 10.6 45.96 46 10.61-10.6-45.96-46zm63.66 63.7l-10.63 10.6 45.93 45.9 10.6-10.6-45.9-45.9z"/>
</svg>